<svg width="18" height="19" viewBox="0 0 18 19" fill="none" xmlns="http://www.w3.org/2000/svg">
<rect y="0.868652" width="17.2632" height="17.2632" rx="8.63158" fill="#18BED4"/>
<path d="M6.29384 8.00304L3.85773 8.91712C3.56641 9.00883 3.45312 9.2408 3.45312 9.49975C3.45312 9.7587 3.56641 9.99067 3.85773 10.0824L6.29384 10.9965C6.68266 11.1424 6.98947 11.4492 7.13536 11.838L8.04944 14.2741C8.14115 14.5169 8.37313 14.6787 8.63207 14.6787C8.89102 14.6787 9.12299 14.5169 9.2147 14.2741L10.1288 11.838C10.2747 11.4492 10.5815 11.1424 10.9703 10.9965L13.4064 10.0824C13.6492 9.99067 13.811 9.7587 13.811 9.49975C13.811 9.2408 13.6492 9.00883 13.4064 8.91712L10.9703 8.00304C10.5815 7.85714 10.2747 7.55034 10.1288 7.16152L9.2147 4.72541C9.12299 4.43409 8.89102 4.3208 8.63207 4.3208C8.37313 4.3208 8.14115 4.43409 8.04944 4.72541L7.13536 7.16152C6.98947 7.55034 6.68266 7.85714 6.29384 8.00304Z" fill="white"/>
</svg>
