<svg width="20" height="20" viewBox="0 0 20 20" fill="none" xmlns="http://www.w3.org/2000/svg">
<g clip-path="url(#clip0_8955_2054)">
<g clip-path="url(#clip1_8955_2054)">
<path d="M14.1072 0.833008H5.89257C3.10293 0.833008 0.833374 3.10267 0.833374 5.89231V14.1069C0.833374 16.8967 3.10293 19.1662 5.89257 19.1662H14.1072C16.897 19.1662 19.1666 16.8966 19.1666 14.1069V5.89231C19.1667 3.10267 16.897 0.833008 14.1072 0.833008ZM17.5401 14.1069C17.5401 15.9998 16.0001 17.5396 14.1073 17.5396H5.89257C3.99985 17.5397 2.45999 15.9998 2.45999 14.1069V5.89231C2.45999 3.99959 3.99985 2.45962 5.89257 2.45962H14.1072C16 2.45962 17.54 3.99959 17.54 5.89231V14.1069H17.5401Z" fill="#5A6C8A"/>
<path d="M10 5.27539C7.39515 5.27539 5.276 7.39454 5.276 9.9994C5.276 12.6041 7.39515 14.7232 10 14.7232C12.6049 14.7232 14.724 12.6041 14.724 9.9994C14.724 7.39454 12.6049 5.27539 10 5.27539ZM10 13.0965C8.29217 13.0965 6.90261 11.7071 6.90261 9.99929C6.90261 8.29135 8.29207 6.90189 10 6.90189C11.708 6.90189 13.0974 8.29135 13.0974 9.99929C13.0974 11.7071 11.7078 13.0965 10 13.0965Z" fill="#5A6C8A"/>
<path d="M14.9221 3.89648C14.6087 3.89648 14.3008 4.02336 14.0795 4.24566C13.8571 4.46688 13.7292 4.77486 13.7292 5.08933C13.7292 5.40284 13.8572 5.7107 14.0795 5.933C14.3007 6.15422 14.6087 6.28218 14.9221 6.28218C15.2366 6.28218 15.5435 6.15422 15.7658 5.933C15.9881 5.7107 16.1149 5.40273 16.1149 5.08933C16.1149 4.77486 15.9881 4.46688 15.7658 4.24566C15.5445 4.02336 15.2366 3.89648 14.9221 3.89648Z" fill="#5A6C8A"/>
</g>
</g>
<defs>
<clipPath id="clip0_8955_2054">
<rect width="20" height="20" fill="white"/>
</clipPath>
<clipPath id="clip1_8955_2054">
<rect width="18.3333" height="18.3333" fill="white" transform="translate(0.833374 0.833008)"/>
</clipPath>
</defs>
</svg>
