<svg width="20" height="21" viewBox="0 0 20 21" fill="none" xmlns="http://www.w3.org/2000/svg">
<g id="Layers">
<path id="Vector" opacity="0.2" d="M1.11114 11.673L1.15559 5.00744C1.16336 3.80077 2.00726 2.76631 3.17227 2.53576L9.60954 1.25964C11.1562 0.952967 12.5918 2.16353 12.5818 3.76521L12.5373 10.4319C12.529 11.638 11.6851 12.6719 10.5201 12.9031L4.08283 14.1792C2.53615 14.4858 1.10059 13.2753 1.11114 11.673Z" fill="#6E7A90"/>
<path id="Vector_2" opacity="0.5" d="M4.26495 14.3327L4.3094 7.66595C4.31662 6.46038 5.16107 5.42649 6.32608 5.19537L12.7633 3.91981C14.31 3.61314 15.7456 4.82315 15.735 6.42538L15.6906 13.0921C15.6828 14.2982 14.8389 15.3321 13.6739 15.5632L7.23664 16.8393C5.68996 17.1455 4.25439 15.9355 4.26495 14.3338V14.3327Z" fill="#6E7A90"/>
<path id="Vector_3" opacity="0.8" d="M7.41906 16.992L7.46351 10.3252C7.47129 9.11857 8.31518 8.08523 9.48019 7.85412L15.9175 6.578C17.4641 6.27133 18.8997 7.48189 18.8891 9.08357L18.8447 15.7503C18.8369 16.957 17.993 17.9909 16.828 18.2214L10.3908 19.4975C8.84407 19.8042 7.40851 18.5936 7.41851 16.992H7.41906Z" fill="#6E7A90"/>
</g>
</svg>
