<svg width="20" height="20" viewBox="0 0 20 20" fill="none" xmlns="http://www.w3.org/2000/svg">
<g clip-path="url(#clip0_8955_2051)">
<mask id="path-1-inside-1_8955_2051" fill="white">
<path d="M11.746 8.59682L18.5721 0.833008H16.9551L11.0255 7.57283L6.29304 0.833008H0.833374L7.99132 11.0258L0.833374 19.1663H2.45037L8.70815 12.0473L13.707 19.1663H19.1667M3.03398 2.02612H5.51815L16.9539 18.0318H14.4691"/>
</mask>
<path d="M11.746 8.59682L18.5721 0.833008H16.9551L11.0255 7.57283L6.29304 0.833008H0.833374L7.99132 11.0258L0.833374 19.1663H2.45037L8.70815 12.0473L13.707 19.1663H19.1667M3.03398 2.02612H5.51815L16.9539 18.0318H14.4691" fill="#424E65"/>
<path d="M18.5721 0.833008L19.7737 1.88949L22.1093 -0.766992H18.5721V0.833008ZM16.9551 0.833008V-0.766992H16.2317L15.7538 -0.223852L16.9551 0.833008ZM11.0255 7.57283L9.71604 8.49227L10.8841 10.1558L12.2268 8.6297L11.0255 7.57283ZM6.29304 0.833008L7.60248 -0.0864302L7.12462 -0.766992H6.29304V0.833008ZM0.833374 0.833008V-0.766992H-2.24536L-0.476008 1.75253L0.833374 0.833008ZM7.99132 11.0258L9.19288 12.0823L10.0243 11.1367L9.3007 10.1063L7.99132 11.0258ZM0.833374 19.1663L-0.368188 18.1098L-2.70406 20.7663H0.833374V19.1663ZM2.45037 19.1663V20.7663H3.17421L3.6521 20.2227L2.45037 19.1663ZM8.70815 12.0473L10.0176 11.1279L8.84899 9.46366L7.50643 10.991L8.70815 12.0473ZM13.707 19.1663L12.3976 20.0858L12.8755 20.7663H13.707V19.1663ZM5.51815 2.02612L6.82001 1.09598L6.34141 0.426125H5.51815V2.02612ZM16.9539 18.0318V19.6318H20.0635L18.2557 17.1017L16.9539 18.0318ZM12.9476 9.65329L19.7737 1.88949L17.3705 -0.22347L10.5444 7.54034L12.9476 9.65329ZM18.5721 -0.766992H16.9551V2.43301H18.5721V-0.766992ZM15.7538 -0.223852L9.82422 6.51597L12.2268 8.6297L18.1564 1.88987L15.7538 -0.223852ZM12.3349 6.6534L7.60248 -0.0864302L4.9836 1.75245L9.71604 8.49227L12.3349 6.6534ZM6.29304 -0.766992H0.833374V2.43301H6.29304V-0.766992ZM-0.476008 1.75253L6.68194 11.9453L9.3007 10.1063L2.14276 -0.0865135L-0.476008 1.75253ZM6.78976 9.96926L-0.368188 18.1098L2.03494 20.2229L9.19288 12.0823L6.78976 9.96926ZM0.833374 20.7663H2.45037V17.5663H0.833374V20.7663ZM3.6521 20.2227L9.90987 13.1037L7.50643 10.991L1.24865 18.11L3.6521 20.2227ZM7.39873 12.9668L12.3976 20.0858L15.0165 18.2469L10.0176 11.1279L7.39873 12.9668ZM13.707 20.7663H19.1667V17.5663H13.707V20.7663ZM3.03398 3.62612H5.51815V0.426125H3.03398V3.62612ZM4.2163 2.95627L15.652 18.962L18.2557 17.1017L6.82001 1.09598L4.2163 2.95627ZM16.9539 16.4318H14.4691V19.6318H16.9539V16.4318Z" fill="#5A6C8A" mask="url(#path-1-inside-1_8955_2051)"/>
</g>
<defs>
<clipPath id="clip0_8955_2051">
<rect width="20" height="20" fill="white"/>
</clipPath>
</defs>
</svg>
