<svg width="48" height="49" viewBox="0 0 48 49" fill="none" xmlns="http://www.w3.org/2000/svg">
<g id="Frame 1">
<rect y="0.191406" width="48" height="48" rx="12" fill="#5A6C8A"/>
<g id="Group 1362788835">
<path id="Vector 14" d="M15.5 12.1914L15.6667 12.1914C16.2189 12.1914 16.6667 12.6391 16.6667 13.1914V25.9531C16.6667 28.4701 18.018 30.7934 20.2059 32.0378L20.3599 32.1254C22.4994 33.3422 25.1207 33.346 27.2636 32.1354L27.443 32.0341C29.6409 30.7925 31 28.4637 31 25.9394V23.3581C31 21.4251 32.567 19.8581 34.5 19.8581H34.667C35.2193 19.8581 35.667 20.3058 35.667 20.8581V25.8639C35.667 30.1787 33.3146 34.1558 29.5366 36.24C25.976 38.2042 21.6499 38.2037 18.0928 36.2332C14.333 34.1505 12 30.191 12 25.8929V15.6914C12 13.7584 13.567 12.1914 15.5 12.1914Z" fill="white"/>
<path id="Vector 17" d="M30.666 16.294V16.794C30.666 17.4737 31.217 18.0247 31.8968 18.0247C34.1626 18.0247 35.9993 16.188 35.9993 13.9222V13.4222C35.9993 12.7424 35.4483 12.1914 34.7686 12.1914C32.5028 12.1914 30.666 14.0282 30.666 16.294Z" fill="white" fill-opacity="0.62"/>
</g>
</g>
</svg>
