<svg width="163" height="45" viewBox="0 0 163 45" fill="none" xmlns="http://www.w3.org/2000/svg">
<g clip-path="url(#clip0_6125_15101)">
<path d="M64.7168 9.20981C64.7168 8.94307 64.933 8.72684 65.1998 8.72684H68.4375C68.7043 8.72684 68.9205 8.94307 68.9205 9.2098V28.0454H78.2977C78.5644 28.0454 78.7807 28.2616 78.7807 28.5283V31.2716C78.7807 31.5383 78.5644 31.7545 78.2977 31.7545H64.7168V9.20981Z" fill="#424E65"/>
<path d="M80.2325 15.4226C80.2325 15.1559 80.4487 14.9397 80.7154 14.9397H83.7987C84.0654 14.9397 84.2816 15.1559 84.2816 15.4226V31.2716C84.2816 31.5383 84.0654 31.7545 83.7987 31.7545H80.7154C80.4487 31.7545 80.2325 31.5383 80.2325 31.2716V15.4226ZM79.9234 10.3032C79.9234 9.5614 80.1294 8.98442 80.5416 8.57229C80.9537 8.16017 81.5204 7.9541 82.2416 7.9541C82.9834 7.9541 83.5604 8.16017 83.9725 8.57229C84.3847 8.98442 84.5907 9.5614 84.5907 10.3032C84.5907 11.0245 84.3847 11.5911 83.9725 12.0033C83.581 12.4154 83.004 12.6215 82.2416 12.6215C81.5204 12.6215 80.9537 12.4154 80.5416 12.0033C80.1294 11.5911 79.9234 11.0245 79.9234 10.3032Z" fill="#424E65"/>
<path d="M96.2731 32.1254C95.181 32.1254 94.161 31.9297 93.2131 31.5381C92.2858 31.1466 91.513 30.5903 90.8948 29.869V31.2716C90.8948 31.5383 90.6786 31.7545 90.4119 31.7545H87.5759C87.3092 31.7545 87.093 31.5383 87.093 31.2716V8.83889C87.093 8.57216 87.3092 8.35593 87.5759 8.35593H90.6592C90.9259 8.35593 91.1421 8.57216 91.1421 8.83889V16.6397C91.7397 15.9803 92.4815 15.4754 93.3676 15.1251C94.2537 14.7542 95.2325 14.5688 96.304 14.5688C97.8701 14.5688 99.3023 14.9603 100.6 15.7433C101.899 16.5058 102.919 17.5567 103.661 18.8961C104.402 20.2355 104.773 21.7192 104.773 23.3471C104.773 24.975 104.402 26.4587 103.661 27.7981C102.919 29.1375 101.899 30.1987 100.6 30.9818C99.3229 31.7442 97.8804 32.1254 96.2731 32.1254ZM91.1421 23.3471C91.1421 24.3156 91.3379 25.1914 91.7294 25.9744C92.1415 26.7369 92.6979 27.3344 93.3985 27.7672C94.1197 28.1999 94.9234 28.4163 95.8095 28.4163C97.1901 28.4163 98.3235 27.9423 99.2095 26.9944C100.116 26.0259 100.57 24.8102 100.57 23.3471C100.57 22.3992 100.363 21.544 99.9514 20.7816C99.5392 19.9986 98.9726 19.3907 98.2513 18.9579C97.5301 18.5046 96.7161 18.2779 95.8095 18.2779C94.9234 18.2779 94.1197 18.4943 93.3985 18.927C92.6979 19.3598 92.1415 19.9676 91.7294 20.7507C91.3379 21.5131 91.1421 22.3786 91.1421 23.3471Z" fill="#424E65"/>
<path d="M106.933 15.4226C106.933 15.1559 107.149 14.9397 107.416 14.9397H110.252C110.519 14.9397 110.735 15.1559 110.735 15.4226V17.2888C111.147 16.3821 111.734 15.733 112.497 15.3415C113.259 14.95 114.187 14.7542 115.279 14.7542H115.785C116.052 14.7542 116.268 14.9705 116.268 15.2372V17.8568C116.268 18.1235 116.052 18.3397 115.785 18.3397H114.815C113.661 18.3397 112.734 18.7004 112.033 19.4216C111.333 20.1428 110.982 21.1319 110.982 22.3889V31.2716C110.982 31.5383 110.766 31.7545 110.499 31.7545H107.416C107.149 31.7545 106.933 31.5383 106.933 31.2716V15.4226Z" fill="#424E65"/>
<path d="M122.667 32.1254C120.895 32.1254 119.483 31.6927 118.432 30.8272C117.402 29.9618 116.887 28.7872 116.887 27.3035C116.887 25.8817 117.371 24.7071 118.339 23.7798C119.308 22.8525 120.761 22.2344 122.698 21.9253L127.705 21.1216V20.5652C127.705 19.8234 127.417 19.2155 126.84 18.7416C126.283 18.2676 125.541 18.0306 124.614 18.0306C123.749 18.0306 122.976 18.2676 122.296 18.7416C121.777 19.0983 121.367 19.5507 121.065 20.0989C120.93 20.3437 120.63 20.4616 120.379 20.3394L117.931 19.1501C117.707 19.0412 117.601 18.7785 117.705 18.552C118.225 17.4196 119.075 16.4937 120.256 15.7742C121.575 14.9706 123.079 14.5688 124.769 14.5688C126.129 14.5688 127.334 14.8263 128.385 15.3415C129.457 15.8361 130.281 16.547 130.858 17.4743C131.455 18.381 131.754 19.4113 131.754 20.5652V31.2716C131.754 31.5383 131.538 31.7545 131.271 31.7545H128.404C128.138 31.7545 127.921 31.5383 127.921 31.2716V29.9618C126.603 31.4042 124.851 32.1254 122.667 32.1254ZM121.09 27.149C121.09 27.726 121.307 28.1896 121.74 28.5399C122.172 28.8696 122.729 29.0345 123.409 29.0345C124.666 29.0345 125.696 28.6429 126.5 27.8599C127.303 27.0563 127.705 26.0671 127.705 24.8926V24.2126L123.47 24.9235C122.667 25.0883 122.069 25.3562 121.678 25.7271C121.286 26.0774 121.09 26.5514 121.09 27.149Z" fill="#424E65"/>
<path d="M134.569 15.4226C134.569 15.1559 134.786 14.9397 135.052 14.9397H137.888C138.155 14.9397 138.371 15.1559 138.371 15.4226V17.2888C138.783 16.3821 139.371 15.733 140.133 15.3415C140.896 14.95 141.823 14.7542 142.915 14.7542H143.421C143.688 14.7542 143.904 14.9705 143.904 15.2372V17.8568C143.904 18.1235 143.688 18.3397 143.421 18.3397H142.451C141.297 18.3397 140.37 18.7004 139.67 19.4216C138.969 20.1428 138.619 21.1319 138.619 22.3889V31.2716C138.619 31.5383 138.402 31.7545 138.136 31.7545H135.052C134.786 31.7545 134.569 31.5383 134.569 31.2716V15.4226Z" fill="#424E65"/>
<path d="M151.51 31.3218L145.219 15.4148C145.093 15.0978 145.327 14.7542 145.668 14.7542H148.981C149.182 14.7542 149.362 14.8789 149.433 15.0672L153.674 26.3453L157.884 15.0683C157.954 14.8794 158.135 14.7542 158.336 14.7542H161.68C162.021 14.7542 162.255 15.0977 162.129 15.4147L153.424 37.4455C153.351 37.6299 153.173 37.751 152.974 37.751H149.657C149.316 37.751 149.082 37.4062 149.209 37.089L151.51 31.3218Z" fill="#424E65"/>
<path d="M0.736328 27.1677V18.3649C0.736328 17.4834 1.23206 16.6767 2.01855 16.2785L4.68264 14.9297V30.5708L2.03877 29.2642C1.24117 28.87 0.736328 28.0574 0.736328 27.1677Z" fill="#5A6C8A"/>
<path d="M3.37551 29.9106C2.05237 29.2465 1.39081 28.9144 1.17501 28.463C0.98715 28.0701 0.98432 27.6138 1.16729 27.2186C1.37747 26.7645 2.03487 26.4243 3.34966 25.7437L25.1416 14.4645C26.3205 13.8543 26.91 13.5492 27.5301 13.429C28.0793 13.3226 28.6438 13.3222 29.1931 13.4279C29.8134 13.5473 30.4033 13.8516 31.583 14.4602L50.5234 24.2318C51.8319 24.9068 52.4862 25.2444 52.6971 25.6966C52.8808 26.0904 52.8797 26.5455 52.6943 26.9384C52.4812 27.3897 51.8254 27.7242 50.5139 28.3932L28.7974 39.4708C27.6384 40.062 27.0589 40.3576 26.4499 40.4751C25.9105 40.5792 25.3563 40.581 24.8162 40.4804C24.2064 40.3669 23.625 40.075 22.4622 39.4913L3.37551 29.9106Z" fill="#5A6C8A"/>
<path d="M4.60465 19.0441L27.443 6.85505C28.153 6.47612 28.508 6.28666 28.8827 6.21099C29.2145 6.14399 29.5562 6.1422 29.8886 6.2057C30.2641 6.27743 30.6211 6.46315 31.335 6.83459L48.7676 15.9043C49.5844 16.3292 49.9927 16.5416 50.2907 16.8528C50.5542 17.128 50.7543 17.4576 50.8768 17.8184C51.0153 18.2264 51.0153 18.6867 51.0153 19.6073V24.3947C51.0153 24.8144 51.0153 25.0242 50.9514 25.2095C50.8949 25.3734 50.8026 25.5226 50.6814 25.6464C50.5442 25.7864 50.3565 25.8803 49.9811 26.068L27.7183 37.1994C27.0423 37.5374 26.7044 37.7064 26.3497 37.7741C26.0356 37.834 25.7131 37.8357 25.3983 37.779C25.0429 37.715 24.7032 37.5496 24.0238 37.2187L4.68181 27.7989L4.6818 27.7989C4.2049 27.5666 3.96645 27.4505 3.7921 27.2751C3.63793 27.12 3.52053 26.9322 3.44857 26.7257C3.36719 26.4921 3.36719 26.2269 3.36719 25.6964V21.1072C3.36719 20.5972 3.36719 20.3422 3.44331 20.1156C3.51065 19.9153 3.62065 19.7319 3.76573 19.5781C3.92975 19.4043 4.15472 19.2842 4.60465 19.0441Z" fill="white"/>
<path d="M3.36719 25.6967V20.5847L3.36719 20.5787C3.36824 20.0411 3.66431 19.5474 4.13809 19.2934L4.14338 19.2906L4.15146 19.2863C4.88136 18.8983 5.75193 18.8792 6.49815 19.2347L6.50641 19.2387L23.5034 27.3725C24.3637 27.7842 24.7938 27.99 25.1085 28.3036C25.3867 28.5809 25.5988 28.9174 25.7288 29.288C25.8758 29.7073 25.8758 30.1841 25.8758 31.1378V36.2672C25.8758 36.882 25.8758 37.1893 25.7463 37.3757C25.6332 37.5385 25.4584 37.6478 25.2625 37.6782C25.0382 37.7131 24.7619 37.5785 24.2092 37.3093L4.68181 27.7992C4.20491 27.567 3.96645 27.4508 3.7921 27.2754C3.63793 27.1203 3.52053 26.9325 3.44857 26.726C3.36719 26.4924 3.36719 26.2272 3.36719 25.6967Z" fill="#F3F3F3"/>
<path d="M3.43249 19.7769C2.09277 19.1177 1.42291 18.7881 1.20374 18.3362C1.013 17.9428 1.00833 17.4847 1.19104 17.0876C1.40095 16.6313 2.06397 16.2881 3.39 15.6018L25.173 4.32713C26.3409 3.72265 26.9249 3.42041 27.5395 3.29975C28.0838 3.19291 28.6434 3.1903 29.1887 3.29207C29.8044 3.407 30.3911 3.70379 31.5646 4.29737L50.6699 13.9615C51.995 14.6317 52.6575 14.9669 52.8718 15.4197C53.0584 15.8139 53.0592 16.2709 52.8739 16.6657C52.6612 17.1193 51.9998 17.4567 50.677 18.1314L28.9696 29.2044C27.8216 29.79 27.2476 30.0828 26.644 30.2007C26.1095 30.3052 25.5601 30.3092 25.0241 30.2124C24.4189 30.1032 23.8407 29.8187 22.6843 29.2497L3.43249 19.7769Z" fill="#5A6C8A"/>
<mask id="mask0_6125_15101" style="mask-type:alpha" maskUnits="userSpaceOnUse" x="1" y="3" width="53" height="28">
<path d="M3.43249 19.7769C2.09277 19.1177 1.42291 18.7881 1.20374 18.3362C1.013 17.9428 1.00833 17.4847 1.19104 17.0876C1.40095 16.6313 2.06397 16.2881 3.39 15.6018L25.173 4.32713C26.3409 3.72265 26.9249 3.42041 27.5395 3.29975C28.0838 3.19291 28.6434 3.1903 29.1887 3.29207C29.8044 3.407 30.3911 3.70379 31.5646 4.29737L50.6699 13.9615C51.995 14.6317 52.6575 14.9669 52.8718 15.4197C53.0584 15.8139 53.0592 16.2709 52.8739 16.6657C52.6612 17.1193 51.9998 17.4567 50.677 18.1314L28.9696 29.2044C27.8216 29.79 27.2476 30.0828 26.644 30.2007C26.1095 30.3052 25.5601 30.3092 25.0241 30.2124C24.4189 30.1032 23.8407 29.8187 22.6843 29.2497L3.43249 19.7769Z" fill="#5A6C8A"/>
</mask>
<g mask="url(#mask0_6125_15101)">
<path d="M47.4526 11.5361L45.8243 10.5961C45.1118 10.1848 44.2489 10.0126 43.5311 10.427L39.5252 12.7396C39.3774 12.8249 39.3747 12.9636 39.5225 13.0489C39.5674 13.0748 39.626 13.0931 39.6861 13.1037L42.2538 13.5989L43.1089 15.0797C43.1352 15.1376 43.2012 15.1878 43.2909 15.2153C43.3833 15.2442 43.4889 15.2503 43.5865 15.2335C43.6472 15.2229 43.7026 15.2031 43.7475 15.1772L47.7534 12.8646C48.4633 12.4456 48.1677 11.9489 47.4526 11.5361Z" fill="white"/>
</g>
</g>
<defs>
<clipPath id="clip0_6125_15101">
<rect width="163" height="44.1911" fill="white"/>
</clipPath>
</defs>
</svg>
