<svg width="48" height="48" viewBox="0 0 48 48" fill="none" xmlns="http://www.w3.org/2000/svg">
<g filter="url(#filter0_ii_8402_9425)">
<rect width="48" height="48" rx="14" fill="url(#paint0_linear_8402_9425)"/>
<g filter="url(#filter1_ddd_8402_9425)">
<g filter="url(#filter2_i_8402_9425)">
<path d="M15.5039 11.9989L15.6706 11.9989C16.2229 11.9989 16.6706 12.4466 16.6706 12.9989V25.7606C16.6706 28.2776 18.0219 30.6008 20.2098 31.8452L20.3639 31.9328C22.5033 33.1497 25.1246 33.1535 27.2675 31.9429L27.4469 31.8416C29.6448 30.6 31.0039 28.2712 31.0039 25.7468V23.1656C31.0039 21.2326 32.5709 19.6656 34.5039 19.6656H34.6709C35.2232 19.6656 35.6709 20.1133 35.6709 20.6656V25.6714C35.6709 29.9862 33.3185 33.9633 29.5405 36.0475C25.9799 38.0117 21.6538 38.0112 18.0967 36.0407C14.3369 33.9579 12.0039 29.9985 12.0039 25.7004V15.4989C12.0039 13.5659 13.5709 11.9989 15.5039 11.9989Z" fill="white"/>
</g>
<path d="M30.6719 16.1015V16.6015C30.6719 17.2812 31.2229 17.8322 31.9026 17.8322C34.1684 17.8322 36.0052 15.9954 36.0052 13.7297V13.2297C36.0052 12.5499 35.4542 11.9989 34.7744 11.9989C32.5087 11.9989 30.6719 13.8357 30.6719 16.1015Z" fill="white" fill-opacity="0.62"/>
</g>
<rect x="0.25" y="0.25" width="47.5" height="47.5" rx="13.75" stroke="#5A6C8A" stroke-opacity="0.34" strokeWidth="0.5" strokeLinecap="round"/>
</g>
<defs>
<filter id="filter0_ii_8402_9425" x="0" y="0" width="48" height="53" filterUnits="userSpaceOnUse" color-interpolation-filters="sRGB">
<feFlood flood-opacity="0" result="BackgroundImageFix"/>
<feBlend mode="normal" in="SourceGraphic" in2="BackgroundImageFix" result="shape"/>
<feColorMatrix in="SourceAlpha" type="matrix" values="0 0 0 0 0 0 0 0 0 0 0 0 0 0 0 0 0 0 127 0" result="hardAlpha"/>
<feOffset dy="1"/>
<feComposite in2="hardAlpha" operator="arithmetic" k2="-1" k3="1"/>
<feColorMatrix type="matrix" values="0 0 0 0 1 0 0 0 0 1 0 0 0 0 1 0 0 0 0.27 0"/>
<feBlend mode="normal" in2="shape" result="effect1_innerShadow_8402_9425"/>
<feColorMatrix in="SourceAlpha" type="matrix" values="0 0 0 0 0 0 0 0 0 0 0 0 0 0 0 0 0 0 127 0" result="hardAlpha"/>
<feOffset dy="5"/>
<feGaussianBlur stdDeviation="6"/>
<feComposite in2="hardAlpha" operator="arithmetic" k2="-1" k3="1"/>
<feColorMatrix type="matrix" values="0 0 0 0 1 0 0 0 0 1 0 0 0 0 1 0 0 0 0.25 0"/>
<feBlend mode="normal" in2="effect1_innerShadow_8402_9425" result="effect2_innerShadow_8402_9425"/>
</filter>
<filter id="filter1_ddd_8402_9425" x="10.0039" y="10.9989" width="28.0013" height="30.5207" filterUnits="userSpaceOnUse" color-interpolation-filters="sRGB">
<feFlood flood-opacity="0" result="BackgroundImageFix"/>
<feColorMatrix in="SourceAlpha" type="matrix" values="0 0 0 0 0 0 0 0 0 0 0 0 0 0 0 0 0 0 127 0" result="hardAlpha"/>
<feOffset dy="1"/>
<feGaussianBlur stdDeviation="1"/>
<feComposite in2="hardAlpha" operator="out"/>
<feColorMatrix type="matrix" values="0 0 0 0 0.294118 0 0 0 0 0.34902 0 0 0 0 0.447059 0 0 0 0.15 0"/>
<feBlend mode="normal" in2="BackgroundImageFix" result="effect1_dropShadow_8402_9425"/>
<feColorMatrix in="SourceAlpha" type="matrix" values="0 0 0 0 0 0 0 0 0 0 0 0 0 0 0 0 0 0 127 0" result="hardAlpha"/>
<feOffset dy="1"/>
<feGaussianBlur stdDeviation="1"/>
<feComposite in2="hardAlpha" operator="out"/>
<feColorMatrix type="matrix" values="0 0 0 0 0.292567 0 0 0 0 0.350354 0 0 0 0 0.446667 0 0 0 0.7 0"/>
<feBlend mode="normal" in2="effect1_dropShadow_8402_9425" result="effect2_dropShadow_8402_9425"/>
<feColorMatrix in="SourceAlpha" type="matrix" values="0 0 0 0 0 0 0 0 0 0 0 0 0 0 0 0 0 0 127 0" result="hardAlpha"/>
<feOffset dy="2"/>
<feGaussianBlur stdDeviation="1"/>
<feComposite in2="hardAlpha" operator="out"/>
<feColorMatrix type="matrix" values="0 0 0 0 0.292567 0 0 0 0 0.350354 0 0 0 0 0.446667 0 0 0 0.9 0"/>
<feBlend mode="normal" in2="effect2_dropShadow_8402_9425" result="effect3_dropShadow_8402_9425"/>
<feBlend mode="normal" in="SourceGraphic" in2="effect3_dropShadow_8402_9425" result="shape"/>
</filter>
<filter id="filter2_i_8402_9425" x="12.0039" y="8.99889" width="23.667" height="28.5207" filterUnits="userSpaceOnUse" color-interpolation-filters="sRGB">
<feFlood flood-opacity="0" result="BackgroundImageFix"/>
<feBlend mode="normal" in="SourceGraphic" in2="BackgroundImageFix" result="shape"/>
<feColorMatrix in="SourceAlpha" type="matrix" values="0 0 0 0 0 0 0 0 0 0 0 0 0 0 0 0 0 0 127 0" result="hardAlpha"/>
<feOffset dy="-3"/>
<feGaussianBlur stdDeviation="2"/>
<feComposite in2="hardAlpha" operator="arithmetic" k2="-1" k3="1"/>
<feColorMatrix type="matrix" values="0 0 0 0 0.352941 0 0 0 0 0.423529 0 0 0 0 0.541176 0 0 0 0.33 0"/>
<feBlend mode="normal" in2="shape" result="effect1_innerShadow_8402_9425"/>
</filter>
<linearGradient id="paint0_linear_8402_9425" x1="44.8889" y1="6.52729" x2="8.98261" y2="60.3892" gradientUnits="userSpaceOnUse">
<stop offset="0.262852" stop-color="#5A6C8A"/>
<stop offset="1" stop-color="#47566F"/>
</linearGradient>
</defs>
</svg>
