<svg width="153" height="41" viewBox="0 0 153 41" fill="none" xmlns="http://www.w3.org/2000/svg">
<g filter="url(#filter0_ii_11188_21346)">
<rect x="0.677734" y="0.0214844" width="40.379" height="40.379" rx="11.7772" fill="url(#paint0_linear_11188_21346)"/>
<rect x="0.888042" y="0.231792" width="39.9584" height="39.9584" rx="11.5669" stroke="#5A6C8A" stroke-opacity="0.34" stroke-width="0.420615" stroke-linecap="round"/>
<g filter="url(#filter1_dii_11188_21346)">
<g filter="url(#filter2_i_11188_21346)">
<path d="M8.75236 19.5141C8.04726 19.1671 7.6947 18.9936 7.57936 18.7558C7.47897 18.5488 7.47651 18.3077 7.57267 18.0986C7.68315 17.8585 8.0321 17.6779 8.73 17.3166L20.1945 11.3827C20.8092 11.0646 21.1165 10.9055 21.44 10.842C21.7265 10.7858 22.021 10.7844 22.308 10.838C22.6321 10.8985 22.9409 11.0547 23.5585 11.3671L33.6137 16.4533C34.3111 16.8061 34.6598 16.9825 34.7726 17.2208C34.8708 17.4283 34.8712 17.6688 34.7737 17.8766C34.6617 18.1153 34.3136 18.2929 33.6174 18.648L22.1927 24.4758C21.5885 24.784 21.2864 24.9381 20.9687 25.0002C20.6874 25.0552 20.3983 25.0572 20.1162 25.0063C19.7976 24.9488 19.4933 24.7991 18.8847 24.4996L8.75236 19.5141Z" fill="#909DB3"/>
</g>
<g filter="url(#filter3_i_11188_21346)">
<path fill-rule="evenodd" clip-rule="evenodd" d="M9.41193 19.8393V22.2924L11.8417 21.0348L9.41193 19.8393ZM30.4477 20.2663L33.5373 21.8602C34.226 22.2155 34.5703 22.3932 34.6813 22.6312C34.778 22.8385 34.7774 23.078 34.6798 23.2847C34.5677 23.5223 34.2226 23.6983 33.5323 24.0505L22.1028 29.8807C21.4928 30.1918 21.1878 30.3474 20.8672 30.4092C20.5833 30.464 20.2917 30.465 20.0074 30.412C19.6865 30.3522 19.3805 30.1987 18.7685 29.8915L9.41193 25.1949V25.1964L8.02044 24.5087C7.60066 24.3012 7.33496 23.8736 7.33496 23.4053V18.7723C7.33496 18.3084 7.59587 17.8838 8.0098 17.6743L9.41193 16.9644V16.965L20.1952 11.3837C20.8099 11.0656 21.1172 10.9065 21.4407 10.843C21.7272 10.7868 22.0217 10.7854 22.3087 10.839C22.6327 10.8995 22.9415 11.0557 23.5591 11.3681L33.6144 16.4544C34.3118 16.8071 34.6605 16.9835 34.7733 17.2219C34.8715 17.4293 34.8719 17.6698 34.7744 17.8776C34.6624 18.1163 34.3143 18.2939 33.6181 18.649L30.4477 20.2663Z" fill="#909DB3"/>
</g>
<g filter="url(#filter4_i_11188_21346)">
<path d="M8.82481 19.5496C8.79839 19.5948 8.77657 19.6427 8.75979 19.6927C8.71973 19.8119 8.71973 19.9461 8.71973 20.2145V22.6299C8.71973 22.909 8.71973 23.0486 8.76256 23.1716C8.80043 23.2803 8.86222 23.3791 8.94336 23.4607C9.03512 23.553 9.16062 23.6142 9.41162 23.7364L19.5914 28.6941C19.949 28.8683 20.1278 28.9553 20.3148 28.989C20.4805 29.0188 20.6502 29.0179 20.8156 28.9864C21.0022 28.9508 21.1801 28.8618 21.5358 28.684L33.2529 22.8254C33.4505 22.7266 33.5493 22.6772 33.6215 22.6035C33.6853 22.5384 33.7338 22.4598 33.7636 22.3736C33.7972 22.2761 33.7972 22.1656 33.7972 21.9447V19.4251C33.7972 19.0113 33.7972 18.7742 33.7518 18.5801C33.7088 18.6021 33.6643 18.6248 33.6182 18.6483L22.1935 24.476C21.5893 24.7842 21.2872 24.9383 20.9696 25.0004C20.6882 25.0554 20.3991 25.0575 20.117 25.0066C19.7985 24.9491 19.4942 24.7994 18.8856 24.4999L8.82481 19.5496Z" fill="white"/>
</g>
<g filter="url(#filter5_i_11188_21346)">
<path d="M8.82484 19.5498C8.75745 19.6651 8.72 19.798 8.71973 19.9365V22.6301C8.71973 22.9093 8.71973 23.0489 8.76256 23.1718C8.80043 23.2805 8.86222 23.3794 8.94336 23.461C9.03512 23.5533 9.16062 23.6145 9.41161 23.7367L19.689 28.7419C19.9799 28.8836 20.1253 28.9544 20.2434 28.9361C20.3464 28.9201 20.4385 28.8625 20.498 28.7769C20.5662 28.6788 20.5662 28.517 20.5662 28.1934V25.4938C20.5662 25.3151 20.5661 25.1683 20.5627 25.0432C20.4136 25.0455 20.2643 25.0334 20.117 25.0068C19.7985 24.9493 19.4942 24.7996 18.8856 24.5001L8.82484 19.5498Z" fill="#F5F5F5"/>
</g>
<path d="M29.8957 14.5723L32.2317 15.7539C32.1969 15.7955 32.147 15.8364 32.08 15.8759L29.9717 17.093C29.9481 17.1066 29.9189 17.1171 29.887 17.1227C29.8356 17.1315 29.78 17.1283 29.7314 17.1131C29.6842 17.0986 29.6495 17.0722 29.6356 17.0417L29.1856 16.2623L27.8342 16.0017C27.8025 15.9961 27.7717 15.9865 27.7481 15.9729C27.6703 15.928 27.6717 15.855 27.7495 15.8101L29.8578 14.593C29.8703 14.5857 29.883 14.5788 29.8957 14.5723Z" fill="white"/>
</g>
</g>
<path d="M51.1514 8.42535C51.1514 8.1481 51.3761 7.92334 51.6534 7.92334H55.0189C55.2961 7.92334 55.5209 8.1481 55.5209 8.42535V28.0039H65.268C65.5452 28.0039 65.77 28.2286 65.77 28.5059V31.3573C65.77 31.6346 65.5452 31.8593 65.268 31.8593H51.1514V8.42535Z" fill="#313949"/>
<path d="M67.2791 14.8833C67.2791 14.606 67.5038 14.3812 67.7811 14.3812H70.9859C71.2632 14.3812 71.4879 14.606 71.4879 14.8833V31.3573C71.4879 31.6346 71.2632 31.8593 70.9859 31.8593H67.7811C67.5038 31.8593 67.2791 31.6346 67.2791 31.3573V14.8833ZM66.9578 9.56191C66.9578 8.79082 67.172 8.19108 67.6003 7.76269C68.0287 7.33431 68.6178 7.12012 69.3674 7.12012C70.1385 7.12012 70.7383 7.33431 71.1666 7.76269C71.595 8.19108 71.8092 8.79082 71.8092 9.56191C71.8092 10.3116 71.595 10.9006 71.1666 11.329C70.7597 11.7574 70.1599 11.9716 69.3674 11.9716C68.6178 11.9716 68.0287 11.7574 67.6003 11.329C67.172 10.9006 66.9578 10.3116 66.9578 9.56191Z" fill="#313949"/>
<path d="M83.9524 32.2449C82.8172 32.2449 81.7569 32.0414 80.7717 31.6344C79.8078 31.2275 79.0046 30.6492 78.362 29.8995V31.3573C78.362 31.6346 78.1372 31.8593 77.86 31.8593H74.9122C74.6349 31.8593 74.4101 31.6346 74.4101 31.3573V8.03981C74.4101 7.76255 74.6349 7.53779 74.9122 7.53779H78.117C78.3943 7.53779 78.619 7.76255 78.619 8.03981V16.1483C79.2402 15.4629 80.0113 14.9381 80.9323 14.574C81.8533 14.1885 82.8707 13.9957 83.9845 13.9957C85.6124 13.9957 87.101 14.4027 88.4505 15.2166C89.7999 16.0091 90.8601 17.1015 91.6312 18.4937C92.4023 19.886 92.7879 21.4282 92.7879 23.1203C92.7879 24.8124 92.4023 26.3546 91.6312 27.7468C90.8601 29.1391 89.7999 30.2422 88.4505 31.0561C87.1225 31.8486 85.6231 32.2449 83.9524 32.2449ZM78.619 23.1203C78.619 24.127 78.8225 25.0373 79.2295 25.8512C79.6579 26.6438 80.2362 27.2649 80.9644 27.7147C81.7141 28.1645 82.5495 28.3894 83.4705 28.3894C84.9056 28.3894 86.0836 27.8968 87.0047 26.9115C87.9471 25.9048 88.4183 24.6411 88.4183 23.1203C88.4183 22.135 88.2041 21.2461 87.7758 20.4536C87.3474 19.6397 86.7583 19.0078 86.0087 18.558C85.259 18.0868 84.4129 17.8512 83.4705 17.8512C82.5495 17.8512 81.7141 18.0761 80.9644 18.5259C80.2362 18.9757 79.6579 19.6075 79.2295 20.4215C78.8225 21.214 78.619 22.1136 78.619 23.1203Z" fill="#313949"/>
<path d="M95.0329 14.8833C95.0329 14.606 95.2576 14.3812 95.5349 14.3812H98.4827C98.7599 14.3812 98.9847 14.606 98.9847 14.8833V16.823C99.4131 15.8806 100.024 15.2059 100.816 14.7989C101.609 14.3919 102.572 14.1885 103.708 14.1885H104.234C104.511 14.1885 104.736 14.4132 104.736 14.6905V17.4134C104.736 17.6907 104.511 17.9154 104.234 17.9154H103.226C102.026 17.9154 101.062 18.2903 100.334 19.0399C99.6059 19.7896 99.2417 20.8177 99.2417 22.1243V31.3573C99.2417 31.6346 99.017 31.8593 98.7397 31.8593H95.5349C95.2576 31.8593 95.0329 31.6346 95.0329 31.3573V14.8833Z" fill="#313949"/>
<path d="M111.387 32.2449C109.545 32.2449 108.078 31.7951 106.986 30.8955C105.915 29.9959 105.379 28.775 105.379 27.2328C105.379 25.7549 105.882 24.534 106.889 23.5701C107.896 22.6062 109.406 21.9636 111.419 21.6424L116.624 20.807V20.2287C116.624 19.4576 116.324 18.8257 115.725 18.3331C115.146 17.8404 114.375 17.5941 113.411 17.5941C112.512 17.5941 111.708 17.8404 111.002 18.3331C110.462 18.7039 110.036 19.1742 109.722 19.7439C109.582 19.9984 109.27 20.121 109.009 19.994L106.465 18.7578C106.232 18.6445 106.121 18.3715 106.229 18.136C106.77 16.959 107.654 15.9966 108.881 15.2487C110.252 14.4134 111.816 13.9957 113.572 13.9957C114.986 13.9957 116.239 14.2634 117.331 14.7989C118.445 15.313 119.302 16.0519 119.901 17.0158C120.523 17.9583 120.833 19.0292 120.833 20.2287V31.3573C120.833 31.6346 120.608 31.8593 120.331 31.8593H117.351C117.074 31.8593 116.849 31.6346 116.849 31.3573V29.9959C115.478 31.4952 113.658 32.2449 111.387 32.2449ZM109.749 27.0721C109.749 27.6719 109.974 28.1538 110.423 28.5179C110.873 28.8606 111.451 29.032 112.158 29.032C113.465 29.032 114.536 28.625 115.371 27.8111C116.207 26.9758 116.624 25.9476 116.624 24.7267V24.0199L112.223 24.7589C111.387 24.9302 110.766 25.2087 110.359 25.5942C109.952 25.9583 109.749 26.451 109.749 27.0721Z" fill="#313949"/>
<path d="M123.759 14.8833C123.759 14.606 123.984 14.3812 124.261 14.3812H127.209C127.486 14.3812 127.711 14.606 127.711 14.8833V16.823C128.14 15.8806 128.75 15.2059 129.543 14.7989C130.335 14.3919 131.299 14.1885 132.434 14.1885H132.96C133.237 14.1885 133.462 14.4132 133.462 14.6905V17.4134C133.462 17.6907 133.237 17.9154 132.96 17.9154H131.952C130.753 17.9154 129.789 18.2903 129.061 19.0399C128.332 19.7896 127.968 20.8177 127.968 22.1243V31.3573C127.968 31.6346 127.743 31.8593 127.466 31.8593H124.261C123.984 31.8593 123.759 31.6346 123.759 31.3573V14.8833Z" fill="#313949"/>
<path d="M141.368 31.4095L134.829 14.8751C134.698 14.5456 134.941 14.1885 135.295 14.1885H138.74C138.949 14.1885 139.136 14.3181 139.209 14.5138L143.617 26.2368L147.993 14.5149C148.067 14.3186 148.254 14.1885 148.464 14.1885H151.939C152.294 14.1885 152.537 14.5455 152.406 14.875L143.357 37.7748C143.281 37.9664 143.096 38.0923 142.89 38.0923H139.442C139.087 38.0923 138.845 37.734 138.976 37.4043L141.368 31.4095Z" fill="#313949"/>
<defs>
<filter id="filter0_ii_11188_21346" x="0.677734" y="0.0214844" width="40.3789" height="44.9674" filterUnits="userSpaceOnUse" color-interpolation-filters="sRGB">
<feFlood flood-opacity="0" result="BackgroundImageFix"/>
<feBlend mode="normal" in="SourceGraphic" in2="BackgroundImageFix" result="shape"/>
<feColorMatrix in="SourceAlpha" type="matrix" values="0 0 0 0 0 0 0 0 0 0 0 0 0 0 0 0 0 0 127 0" result="hardAlpha"/>
<feOffset dy="0.917705"/>
<feComposite in2="hardAlpha" operator="arithmetic" k2="-1" k3="1"/>
<feColorMatrix type="matrix" values="0 0 0 0 1 0 0 0 0 1 0 0 0 0 1 0 0 0 0.27 0"/>
<feBlend mode="normal" in2="shape" result="effect1_innerShadow_11188_21346"/>
<feColorMatrix in="SourceAlpha" type="matrix" values="0 0 0 0 0 0 0 0 0 0 0 0 0 0 0 0 0 0 127 0" result="hardAlpha"/>
<feOffset dy="4.58853"/>
<feGaussianBlur stdDeviation="5.50623"/>
<feComposite in2="hardAlpha" operator="arithmetic" k2="-1" k3="1"/>
<feColorMatrix type="matrix" values="0 0 0 0 1 0 0 0 0 1 0 0 0 0 1 0 0 0 0.25 0"/>
<feBlend mode="normal" in2="effect1_innerShadow_11188_21346" result="effect2_innerShadow_11188_21346"/>
</filter>
<filter id="filter1_dii_11188_21346" x="4.73644" y="9.06648" width="32.7097" height="24.8494" filterUnits="userSpaceOnUse" color-interpolation-filters="sRGB">
<feFlood flood-opacity="0" result="BackgroundImageFix"/>
<feColorMatrix in="SourceAlpha" type="matrix" values="0 0 0 0 0 0 0 0 0 0 0 0 0 0 0 0 0 0 127 0" result="hardAlpha"/>
<feOffset dy="0.866174"/>
<feGaussianBlur stdDeviation="1.29926"/>
<feComposite in2="hardAlpha" operator="out"/>
<feColorMatrix type="matrix" values="0 0 0 0 0 0 0 0 0 0 0 0 0 0 0 0 0 0 0.16 0"/>
<feBlend mode="normal" in2="BackgroundImageFix" result="effect1_dropShadow_11188_21346"/>
<feBlend mode="normal" in="SourceGraphic" in2="effect1_dropShadow_11188_21346" result="shape"/>
<feColorMatrix in="SourceAlpha" type="matrix" values="0 0 0 0 0 0 0 0 0 0 0 0 0 0 0 0 0 0 127 0" result="hardAlpha"/>
<feOffset dy="-1.73235"/>
<feGaussianBlur stdDeviation="1.73235"/>
<feComposite in2="hardAlpha" operator="arithmetic" k2="-1" k3="1"/>
<feColorMatrix type="matrix" values="0 0 0 0 1 0 0 0 0 1 0 0 0 0 1 0 0 0 0.25 0"/>
<feBlend mode="normal" in2="shape" result="effect2_innerShadow_11188_21346"/>
<feColorMatrix in="SourceAlpha" type="matrix" values="0 0 0 0 0 0 0 0 0 0 0 0 0 0 0 0 0 0 127 0" result="hardAlpha"/>
<feOffset dy="0.866174"/>
<feGaussianBlur stdDeviation="3.46469"/>
<feComposite in2="hardAlpha" operator="arithmetic" k2="-1" k3="1"/>
<feColorMatrix type="matrix" values="0 0 0 0 1 0 0 0 0 1 0 0 0 0 1 0 0 0 0.14 0"/>
<feBlend mode="normal" in2="effect2_innerShadow_11188_21346" result="effect3_innerShadow_11188_21346"/>
</filter>
<filter id="filter2_i_11188_21346" x="7.50195" y="8.20031" width="27.3447" height="16.8427" filterUnits="userSpaceOnUse" color-interpolation-filters="sRGB">
<feFlood flood-opacity="0" result="BackgroundImageFix"/>
<feBlend mode="normal" in="SourceGraphic" in2="BackgroundImageFix" result="shape"/>
<feColorMatrix in="SourceAlpha" type="matrix" values="0 0 0 0 0 0 0 0 0 0 0 0 0 0 0 0 0 0 127 0" result="hardAlpha"/>
<feOffset dy="-2.59852"/>
<feGaussianBlur stdDeviation="1.73235"/>
<feComposite in2="hardAlpha" operator="arithmetic" k2="-1" k3="1"/>
<feColorMatrix type="matrix" values="0 0 0 0 0.352941 0 0 0 0 0.423529 0 0 0 0 0.541176 0 0 0 0.33 0"/>
<feBlend mode="normal" in2="shape" result="effect1_innerShadow_11188_21346"/>
</filter>
<filter id="filter3_i_11188_21346" x="7.33496" y="8.04669" width="27.5127" height="22.4045" filterUnits="userSpaceOnUse" color-interpolation-filters="sRGB">
<feFlood flood-opacity="0" result="BackgroundImageFix"/>
<feBlend mode="normal" in="SourceGraphic" in2="BackgroundImageFix" result="shape"/>
<feColorMatrix in="SourceAlpha" type="matrix" values="0 0 0 0 0 0 0 0 0 0 0 0 0 0 0 0 0 0 127 0" result="hardAlpha"/>
<feOffset dy="-2.75311"/>
<feGaussianBlur stdDeviation="1.83541"/>
<feComposite in2="hardAlpha" operator="arithmetic" k2="-1" k3="1"/>
<feColorMatrix type="matrix" values="0 0 0 0 0.352941 0 0 0 0 0.423529 0 0 0 0 0.541176 0 0 0 0.33 0"/>
<feBlend mode="normal" in2="shape" result="effect1_innerShadow_11188_21346"/>
</filter>
<filter id="filter4_i_11188_21346" x="8.71973" y="17.6624" width="25.0771" height="11.3484" filterUnits="userSpaceOnUse" color-interpolation-filters="sRGB">
<feFlood flood-opacity="0" result="BackgroundImageFix"/>
<feBlend mode="normal" in="SourceGraphic" in2="BackgroundImageFix" result="shape"/>
<feColorMatrix in="SourceAlpha" type="matrix" values="0 0 0 0 0 0 0 0 0 0 0 0 0 0 0 0 0 0 127 0" result="hardAlpha"/>
<feOffset dy="-0.917705"/>
<feGaussianBlur stdDeviation="1.83541"/>
<feComposite in2="hardAlpha" operator="arithmetic" k2="-1" k3="1"/>
<feColorMatrix type="matrix" values="0 0 0 0 0.352941 0 0 0 0 0.423529 0 0 0 0 0.541176 0 0 0 0.33 0"/>
<feBlend mode="normal" in2="shape" result="effect1_innerShadow_11188_21346"/>
</filter>
<filter id="filter5_i_11188_21346" x="8.71973" y="18.6321" width="11.8467" height="10.3064" filterUnits="userSpaceOnUse" color-interpolation-filters="sRGB">
<feFlood flood-opacity="0" result="BackgroundImageFix"/>
<feBlend mode="normal" in="SourceGraphic" in2="BackgroundImageFix" result="shape"/>
<feColorMatrix in="SourceAlpha" type="matrix" values="0 0 0 0 0 0 0 0 0 0 0 0 0 0 0 0 0 0 127 0" result="hardAlpha"/>
<feOffset dy="-0.917705"/>
<feGaussianBlur stdDeviation="1.83541"/>
<feComposite in2="hardAlpha" operator="arithmetic" k2="-1" k3="1"/>
<feColorMatrix type="matrix" values="0 0 0 0 0.352941 0 0 0 0 0.423529 0 0 0 0 0.541176 0 0 0 0.33 0"/>
<feBlend mode="normal" in2="shape" result="effect1_innerShadow_11188_21346"/>
</filter>
<linearGradient id="paint0_linear_11188_21346" x1="38.4396" y1="5.51243" x2="8.23417" y2="50.8227" gradientUnits="userSpaceOnUse">
<stop offset="0.262852" stop-color="#5A6C8A"/>
<stop offset="1" stop-color="#47566F"/>
</linearGradient>
</defs>
</svg>
