<svg width="152" height="41" viewBox="0 0 152 41" fill="none" xmlns="http://www.w3.org/2000/svg">
<g filter="url(#filter0_ii_11313_21363)">
<rect width="40.379" height="40.379" rx="11.7772" fill="url(#paint0_linear_11313_21363)"/>
<rect x="0.210307" y="0.210307" width="39.9584" height="39.9584" rx="11.5669" stroke="#5A6C8A" stroke-opacity="0.34" stroke-width="0.420615" stroke-linecap="round"/>
<g filter="url(#filter1_ii_11313_21363)">
<g filter="url(#filter2_i_11313_21363)">
<path d="M8.07454 19.4926C7.36943 19.1456 7.01688 18.9722 6.90153 18.7343C6.80114 18.5273 6.79869 18.2862 6.89484 18.0772C7.00532 17.837 7.35427 17.6564 8.05217 17.2952L19.5167 11.3612C20.1314 11.0431 20.4387 10.884 20.7622 10.8205C21.0487 10.7643 21.3432 10.7629 21.6302 10.8165C21.9542 10.877 22.263 11.0332 22.8806 11.3456L32.9359 16.4319C33.6333 16.7846 33.982 16.961 34.0948 17.1994C34.1929 17.4068 34.1934 17.6473 34.0959 17.8551C33.9839 18.0938 33.6358 18.2714 32.9396 18.6265L21.5149 24.4543C20.9107 24.7625 20.6086 24.9166 20.2909 24.9787C20.0096 25.0337 19.7204 25.0358 19.4383 24.9848C19.1198 24.9273 18.8155 24.7776 18.2069 24.4782L8.07454 19.4926Z" fill="#909DB3"/>
</g>
<g filter="url(#filter3_i_11313_21363)">
<path fill-rule="evenodd" clip-rule="evenodd" d="M8.73371 19.8178V22.2709L11.1635 21.0133L8.73371 19.8178ZM29.7694 20.2448L32.8591 21.8388C33.5477 22.1941 33.8921 22.3717 34.0031 22.6097C34.0998 22.817 34.0992 23.0565 34.0016 23.2633C33.8895 23.5008 33.5443 23.6769 32.854 24.029L21.4245 29.8592C20.8146 30.1703 20.5096 30.3259 20.189 30.3878C19.9051 30.4425 19.6135 30.4435 19.3292 30.3905C19.0083 30.3308 18.7023 30.1772 18.0903 29.87L8.73371 25.1734V25.1749L7.34222 24.4872C6.92244 24.2798 6.65674 23.8521 6.65674 23.3838V18.7509C6.65674 18.2869 6.91765 17.8624 7.33158 17.6528L8.73371 16.9429V16.9436L19.517 11.3623C20.1317 11.0441 20.439 10.885 20.7625 10.8215C21.0489 10.7653 21.3435 10.7639 21.6305 10.8175C21.9545 10.878 22.2633 11.0342 22.8809 11.3466L32.9362 16.4329C33.6336 16.7856 33.9823 16.962 34.095 17.2004C34.1932 17.4078 34.1936 17.6483 34.0962 17.8561C33.9842 18.0948 33.6361 18.2724 32.9399 18.6275L29.7694 20.2448Z" fill="#909DB3"/>
</g>
<g filter="url(#filter4_i_11313_21363)">
<path d="M8.14699 19.5281C8.12056 19.5733 8.09875 19.6212 8.08197 19.6712C8.0419 19.7904 8.0419 19.9246 8.0419 20.193V22.6084C8.0419 22.8876 8.0419 23.0271 8.08473 23.1501C8.12261 23.2588 8.18439 23.3576 8.26553 23.4392C8.3573 23.5316 8.4828 23.5927 8.7338 23.7149L18.9136 28.6726C19.2712 28.8468 19.45 28.9338 19.637 28.9675C19.8027 28.9973 19.9724 28.9965 20.1377 28.9649C20.3244 28.9293 20.5023 28.8403 20.858 28.6625L32.5751 22.8039C32.7727 22.7051 32.8715 22.6557 32.9437 22.5821C33.0075 22.5169 33.056 22.4383 33.0858 22.3521C33.1194 22.2546 33.1194 22.1441 33.1194 21.9232V19.4036C33.1194 18.9898 33.1194 18.7527 33.074 18.5586C33.031 18.5806 32.9864 18.6033 32.9404 18.6268L21.5157 24.4545C20.9115 24.7628 20.6094 24.9169 20.2917 24.9789C20.0104 25.0339 19.7213 25.036 19.4392 24.9851C19.1206 24.9276 18.8163 24.7779 18.2077 24.4784L8.14699 19.5281Z" fill="white"/>
</g>
<g filter="url(#filter5_i_11313_21363)">
<path d="M8.14701 19.5283C8.07962 19.6436 8.04217 19.7765 8.0419 19.915V22.6087C8.0419 22.8878 8.0419 23.0274 8.08473 23.1504C8.12261 23.2591 8.18439 23.3579 8.26553 23.4395C8.3573 23.5318 8.48279 23.593 8.73378 23.7152L19.0112 28.7204C19.3021 28.8621 19.4475 28.9329 19.5655 28.9146C19.6686 28.8986 19.7606 28.8411 19.8202 28.7554C19.8883 28.6573 19.8883 28.4955 19.8883 28.172V25.4723C19.8883 25.2936 19.8883 25.1468 19.8848 25.0218C19.7358 25.0241 19.5865 25.0119 19.4392 24.9853C19.1206 24.9278 18.8163 24.7781 18.2077 24.4786L8.14701 19.5283Z" fill="#F5F5F5"/>
</g>
<path d="M29.2174 14.5508L31.5535 15.7324C31.5187 15.7741 31.4688 15.8149 31.4018 15.8544L29.2935 17.0715C29.2699 17.0852 29.2407 17.0956 29.2088 17.1012C29.1574 17.11 29.1018 17.1068 29.0532 17.0916C29.006 17.0771 28.9713 17.0507 28.9574 17.0202L28.5074 16.2409L27.156 15.9803C27.1243 15.9747 27.0935 15.965 27.0699 15.9514C26.9921 15.9065 26.9935 15.8335 27.0712 15.7886L29.1796 14.5715C29.1921 14.5642 29.2047 14.5573 29.2174 14.5508Z" fill="white"/>
</g>
</g>
<path d="M50.4739 8.40387C50.4739 8.12661 50.6986 7.90185 50.9759 7.90185H54.3414C54.6186 7.90185 54.8434 8.12661 54.8434 8.40387V27.9824H64.5905C64.8677 27.9824 65.0925 28.2071 65.0925 28.4844V31.3358C65.0925 31.6131 64.8677 31.8379 64.5905 31.8379H50.4739V8.40387Z" fill="#313949"/>
<path d="M66.6016 14.8618C66.6016 14.5845 66.8263 14.3598 67.1036 14.3598H70.3084C70.5857 14.3598 70.8104 14.5845 70.8104 14.8618V31.3358C70.8104 31.6131 70.5857 31.8379 70.3084 31.8379H67.1036C66.8263 31.8379 66.6016 31.6131 66.6016 31.3358V14.8618ZM66.2803 9.54043C66.2803 8.76933 66.4945 8.16959 66.9228 7.74121C67.3512 7.31282 67.9403 7.09863 68.6899 7.09863C69.461 7.09863 70.0608 7.31282 70.4892 7.74121C70.9175 8.16959 71.1317 8.76933 71.1317 9.54043C71.1317 10.2901 70.9175 10.8791 70.4892 11.3075C70.0822 11.7359 69.4824 11.9501 68.6899 11.9501C67.9403 11.9501 67.3512 11.7359 66.9228 11.3075C66.4945 10.8791 66.2803 10.2901 66.2803 9.54043Z" fill="#313949"/>
<path d="M83.2749 32.2234C82.1397 32.2234 81.0795 32.0199 80.0942 31.613C79.1303 31.206 78.3271 30.6277 77.6845 29.878V31.3358C77.6845 31.6131 77.4597 31.8379 77.1825 31.8379H74.2347C73.9574 31.8379 73.7327 31.6131 73.7327 31.3358V8.01832C73.7327 7.74107 73.9574 7.51631 74.2347 7.51631H77.4395C77.7168 7.51631 77.9415 7.74107 77.9415 8.01832V16.1268C78.5627 15.4414 79.3338 14.9167 80.2548 14.5525C81.1758 14.167 82.1933 13.9742 83.3071 13.9742C84.9349 13.9742 86.4236 14.3812 87.773 15.1951C89.1224 15.9876 90.1826 17.08 90.9537 18.4722C91.7248 19.8645 92.1104 21.4067 92.1104 23.0988C92.1104 24.7909 91.7248 26.3331 90.9537 27.7254C90.1826 29.1176 89.1224 30.2207 87.773 31.0346C86.445 31.8271 84.9456 32.2234 83.2749 32.2234ZM77.9415 23.0988C77.9415 24.1055 78.145 25.0158 78.552 25.8298C78.9804 26.6223 79.5587 27.2434 80.2869 27.6932C81.0366 28.143 81.872 28.3679 82.793 28.3679C84.2281 28.3679 85.4061 27.8753 86.3272 26.89C87.2696 25.8833 87.7408 24.6196 87.7408 23.0988C87.7408 22.1135 87.5266 21.2246 87.0983 20.4321C86.6699 19.6182 86.0808 18.9863 85.3312 18.5365C84.5815 18.0653 83.7354 17.8297 82.793 17.8297C81.872 17.8297 81.0366 18.0546 80.2869 18.5044C79.5587 18.9542 78.9804 19.586 78.552 20.4C78.145 21.1925 77.9415 22.0921 77.9415 23.0988Z" fill="#313949"/>
<path d="M94.3554 14.8618C94.3554 14.5845 94.5801 14.3598 94.8574 14.3598H97.8052C98.0825 14.3598 98.3072 14.5845 98.3072 14.8618V16.8015C98.7356 15.8591 99.3461 15.1844 100.139 14.7774C100.931 14.3705 101.895 14.167 103.03 14.167H103.556C103.834 14.167 104.058 14.3917 104.058 14.669V17.3919C104.058 17.6692 103.834 17.8939 103.556 17.8939H102.548C101.349 17.8939 100.385 18.2688 99.6566 19.0184C98.9284 19.7681 98.5642 20.7962 98.5642 22.1028V31.3358C98.5642 31.6131 98.3395 31.8379 98.0622 31.8379H94.8574C94.5801 31.8379 94.3554 31.6131 94.3554 31.3358V14.8618Z" fill="#313949"/>
<path d="M110.71 32.2234C108.868 32.2234 107.4 31.7736 106.308 30.874C105.237 29.9744 104.702 28.7535 104.702 27.2113C104.702 25.7334 105.205 24.5125 106.212 23.5486C107.218 22.5847 108.728 21.9422 110.742 21.6209L115.947 20.7855V20.2072C115.947 19.4361 115.647 18.8042 115.047 18.3116C114.469 17.819 113.698 17.5726 112.734 17.5726C111.834 17.5726 111.031 17.819 110.324 18.3116C109.785 18.6824 109.358 19.1527 109.044 19.7224C108.904 19.9769 108.592 20.0995 108.331 19.9725L105.787 18.7363C105.554 18.6231 105.444 18.35 105.552 18.1146C106.093 16.9375 106.976 15.9751 108.204 15.2272C109.574 14.3919 111.138 13.9742 112.894 13.9742C114.308 13.9742 115.561 14.2419 116.654 14.7774C117.767 15.2915 118.624 16.0305 119.224 16.9943C119.845 17.9368 120.156 19.0077 120.156 20.2072V31.3358C120.156 31.6131 119.931 31.8379 119.654 31.8379H116.674C116.396 31.8379 116.172 31.6131 116.172 31.3358V29.9744C114.801 31.4737 112.98 32.2234 110.71 32.2234ZM109.071 27.0507C109.071 27.6504 109.296 28.1323 109.746 28.4965C110.196 28.8392 110.774 29.0105 111.481 29.0105C112.787 29.0105 113.858 28.6035 114.694 27.7896C115.529 26.9543 115.947 25.9261 115.947 24.7052V23.9984L111.545 24.7374C110.71 24.9087 110.089 25.1872 109.682 25.5727C109.275 25.9369 109.071 26.4295 109.071 27.0507Z" fill="#313949"/>
<path d="M123.082 14.8618C123.082 14.5845 123.307 14.3598 123.584 14.3598H126.532C126.809 14.3598 127.034 14.5845 127.034 14.8618V16.8015C127.462 15.8591 128.073 15.1844 128.865 14.7774C129.658 14.3705 130.621 14.167 131.757 14.167H132.283C132.56 14.167 132.785 14.3917 132.785 14.669V17.3919C132.785 17.6692 132.56 17.8939 132.283 17.8939H131.275C130.075 17.8939 129.111 18.2688 128.383 19.0184C127.655 19.7681 127.291 20.7962 127.291 22.1028V31.3358C127.291 31.6131 127.066 31.8379 126.789 31.8379H123.584C123.307 31.8379 123.082 31.6131 123.082 31.3358V14.8618Z" fill="#313949"/>
<path d="M140.691 31.388L134.151 14.8536C134.021 14.5241 134.264 14.167 134.618 14.167H138.062C138.271 14.167 138.458 14.2966 138.532 14.4923L142.94 26.2153L147.316 14.4934C147.389 14.2971 147.577 14.167 147.786 14.167H151.262C151.616 14.167 151.859 14.524 151.729 14.8535L142.68 37.7533C142.604 37.945 142.419 38.0709 142.213 38.0709H138.765C138.41 38.0709 138.167 37.7125 138.299 37.3828L140.691 31.388Z" fill="#313949"/>
<defs>
<filter id="filter0_ii_11313_21363" x="0" y="0" width="40.379" height="44.9674" filterUnits="userSpaceOnUse" color-interpolation-filters="sRGB">
<feFlood flood-opacity="0" result="BackgroundImageFix"/>
<feBlend mode="normal" in="SourceGraphic" in2="BackgroundImageFix" result="shape"/>
<feColorMatrix in="SourceAlpha" type="matrix" values="0 0 0 0 0 0 0 0 0 0 0 0 0 0 0 0 0 0 127 0" result="hardAlpha"/>
<feOffset dy="0.917705"/>
<feComposite in2="hardAlpha" operator="arithmetic" k2="-1" k3="1"/>
<feColorMatrix type="matrix" values="0 0 0 0 1 0 0 0 0 1 0 0 0 0 1 0 0 0 0.27 0"/>
<feBlend mode="normal" in2="shape" result="effect1_innerShadow_11313_21363"/>
<feColorMatrix in="SourceAlpha" type="matrix" values="0 0 0 0 0 0 0 0 0 0 0 0 0 0 0 0 0 0 127 0" result="hardAlpha"/>
<feOffset dy="4.58853"/>
<feGaussianBlur stdDeviation="5.50623"/>
<feComposite in2="hardAlpha" operator="arithmetic" k2="-1" k3="1"/>
<feColorMatrix type="matrix" values="0 0 0 0 1 0 0 0 0 1 0 0 0 0 1 0 0 0 0.25 0"/>
<feBlend mode="normal" in2="effect1_innerShadow_11313_21363" result="effect2_innerShadow_11313_21363"/>
</filter>
<filter id="filter1_ii_11313_21363" x="6.65674" y="9.045" width="27.5122" height="22.2509" filterUnits="userSpaceOnUse" color-interpolation-filters="sRGB">
<feFlood flood-opacity="0" result="BackgroundImageFix"/>
<feBlend mode="normal" in="SourceGraphic" in2="BackgroundImageFix" result="shape"/>
<feColorMatrix in="SourceAlpha" type="matrix" values="0 0 0 0 0 0 0 0 0 0 0 0 0 0 0 0 0 0 127 0" result="hardAlpha"/>
<feOffset dy="-1.73235"/>
<feGaussianBlur stdDeviation="1.73235"/>
<feComposite in2="hardAlpha" operator="arithmetic" k2="-1" k3="1"/>
<feColorMatrix type="matrix" values="0 0 0 0 1 0 0 0 0 1 0 0 0 0 1 0 0 0 0.25 0"/>
<feBlend mode="normal" in2="shape" result="effect1_innerShadow_11313_21363"/>
<feColorMatrix in="SourceAlpha" type="matrix" values="0 0 0 0 0 0 0 0 0 0 0 0 0 0 0 0 0 0 127 0" result="hardAlpha"/>
<feOffset dy="0.866174"/>
<feGaussianBlur stdDeviation="3.46469"/>
<feComposite in2="hardAlpha" operator="arithmetic" k2="-1" k3="1"/>
<feColorMatrix type="matrix" values="0 0 0 0 1 0 0 0 0 1 0 0 0 0 1 0 0 0 0.14 0"/>
<feBlend mode="normal" in2="effect1_innerShadow_11313_21363" result="effect2_innerShadow_11313_21363"/>
</filter>
<filter id="filter2_i_11313_21363" x="6.82443" y="8.17882" width="27.3443" height="16.8427" filterUnits="userSpaceOnUse" color-interpolation-filters="sRGB">
<feFlood flood-opacity="0" result="BackgroundImageFix"/>
<feBlend mode="normal" in="SourceGraphic" in2="BackgroundImageFix" result="shape"/>
<feColorMatrix in="SourceAlpha" type="matrix" values="0 0 0 0 0 0 0 0 0 0 0 0 0 0 0 0 0 0 127 0" result="hardAlpha"/>
<feOffset dy="-2.59852"/>
<feGaussianBlur stdDeviation="1.73235"/>
<feComposite in2="hardAlpha" operator="arithmetic" k2="-1" k3="1"/>
<feColorMatrix type="matrix" values="0 0 0 0 0.352941 0 0 0 0 0.423529 0 0 0 0 0.541176 0 0 0 0.33 0"/>
<feBlend mode="normal" in2="shape" result="effect1_innerShadow_11313_21363"/>
</filter>
<filter id="filter3_i_11313_21363" x="6.65674" y="8.02521" width="27.5122" height="22.4045" filterUnits="userSpaceOnUse" color-interpolation-filters="sRGB">
<feFlood flood-opacity="0" result="BackgroundImageFix"/>
<feBlend mode="normal" in="SourceGraphic" in2="BackgroundImageFix" result="shape"/>
<feColorMatrix in="SourceAlpha" type="matrix" values="0 0 0 0 0 0 0 0 0 0 0 0 0 0 0 0 0 0 127 0" result="hardAlpha"/>
<feOffset dy="-2.75311"/>
<feGaussianBlur stdDeviation="1.83541"/>
<feComposite in2="hardAlpha" operator="arithmetic" k2="-1" k3="1"/>
<feColorMatrix type="matrix" values="0 0 0 0 0.352941 0 0 0 0 0.423529 0 0 0 0 0.541176 0 0 0 0.33 0"/>
<feBlend mode="normal" in2="shape" result="effect1_innerShadow_11313_21363"/>
</filter>
<filter id="filter4_i_11313_21363" x="8.0419" y="17.6409" width="25.0775" height="11.3484" filterUnits="userSpaceOnUse" color-interpolation-filters="sRGB">
<feFlood flood-opacity="0" result="BackgroundImageFix"/>
<feBlend mode="normal" in="SourceGraphic" in2="BackgroundImageFix" result="shape"/>
<feColorMatrix in="SourceAlpha" type="matrix" values="0 0 0 0 0 0 0 0 0 0 0 0 0 0 0 0 0 0 127 0" result="hardAlpha"/>
<feOffset dy="-0.917705"/>
<feGaussianBlur stdDeviation="1.83541"/>
<feComposite in2="hardAlpha" operator="arithmetic" k2="-1" k3="1"/>
<feColorMatrix type="matrix" values="0 0 0 0 0.352941 0 0 0 0 0.423529 0 0 0 0 0.541176 0 0 0 0.33 0"/>
<feBlend mode="normal" in2="shape" result="effect1_innerShadow_11313_21363"/>
</filter>
<filter id="filter5_i_11313_21363" x="8.0419" y="18.6106" width="11.8464" height="10.3064" filterUnits="userSpaceOnUse" color-interpolation-filters="sRGB">
<feFlood flood-opacity="0" result="BackgroundImageFix"/>
<feBlend mode="normal" in="SourceGraphic" in2="BackgroundImageFix" result="shape"/>
<feColorMatrix in="SourceAlpha" type="matrix" values="0 0 0 0 0 0 0 0 0 0 0 0 0 0 0 0 0 0 127 0" result="hardAlpha"/>
<feOffset dy="-0.917705"/>
<feGaussianBlur stdDeviation="1.83541"/>
<feComposite in2="hardAlpha" operator="arithmetic" k2="-1" k3="1"/>
<feColorMatrix type="matrix" values="0 0 0 0 0.352941 0 0 0 0 0.423529 0 0 0 0 0.541176 0 0 0 0.33 0"/>
<feBlend mode="normal" in2="shape" result="effect1_innerShadow_11313_21363"/>
</filter>
<linearGradient id="paint0_linear_11313_21363" x1="37.7619" y1="5.49095" x2="7.55644" y2="50.8012" gradientUnits="userSpaceOnUse">
<stop offset="0.262852" stop-color="#5A6C8A"/>
<stop offset="1" stop-color="#47566F"/>
</linearGradient>
</defs>
</svg>
