<svg width="166" height="44" viewBox="0 0 166 44" fill="none" xmlns="http://www.w3.org/2000/svg">
<g filter="url(#filter0_ii_8402_9326)">
<rect width="44" height="44" rx="12.8333" fill="url(#paint0_linear_8402_9326)"/>
<g filter="url(#filter1_dii_8402_9326)">
<g filter="url(#filter2_i_8402_9326)">
<path d="M8.8 21.2404C8.03167 20.8624 7.6475 20.6733 7.52181 20.4141C7.41241 20.1885 7.40974 19.9258 7.51452 19.6981C7.63491 19.4364 8.01515 19.2396 8.77563 18.8459L21.2683 12.3799C21.938 12.0332 22.2729 11.8599 22.6254 11.7907C22.9376 11.7294 23.2585 11.7279 23.5712 11.7863C23.9244 11.8522 24.2609 12.0224 24.9338 12.3628L35.8908 17.9052C36.6507 18.2896 37.0307 18.4818 37.1536 18.7416C37.2606 18.9676 37.261 19.2297 37.1548 19.4561C37.0328 19.7162 36.6535 19.9097 35.8948 20.2967L23.4456 26.6471C22.7872 26.9829 22.458 27.1508 22.1119 27.2185C21.8053 27.2784 21.4903 27.2807 21.1828 27.2252C20.8358 27.1626 20.5042 26.9994 19.841 26.6731L8.8 21.2404Z" fill="#909DB3"/>
</g>
<g filter="url(#filter3_i_8402_9326)">
<path fill-rule="evenodd" clip-rule="evenodd" d="M9.51811 21.5937V24.2666L12.1654 22.8963L9.51811 21.5937ZM32.4405 22.0589L35.8069 23.7956C36.5573 24.1828 36.9325 24.3764 37.0535 24.6358C37.1588 24.8616 37.1582 25.1226 37.0519 25.3479C36.9297 25.6067 36.5536 25.7986 35.8014 26.1823L23.347 32.5353L23.347 32.5353C22.6823 32.8743 22.35 33.0439 22.0006 33.1113C21.6913 33.171 21.3735 33.172 21.0637 33.1143C20.714 33.0492 20.3806 32.8818 19.7137 32.5471L9.51811 27.4293V27.4309L8.00184 26.6815C7.54441 26.4555 7.25488 25.9894 7.25488 25.4792V20.4308C7.25488 19.9252 7.53919 19.4626 7.99024 19.2342L9.51811 18.4607V18.4618L21.2684 12.38C21.9382 12.0333 22.2731 11.8599 22.6256 11.7907C22.9377 11.7295 23.2586 11.728 23.5714 11.7863C23.9245 11.8523 24.261 12.0225 24.9339 12.3629L24.934 12.3629L35.8909 17.9053C36.6508 18.2897 37.0308 18.4819 37.1537 18.7416C37.2607 18.9677 37.2611 19.2297 37.1549 19.4561C37.0329 19.7163 36.6536 19.9098 35.8949 20.2968L32.4405 22.0589Z" fill="#909DB3"/>
</g>
<g filter="url(#filter4_i_8402_9326)">
<path d="M8.87818 21.2788C8.84939 21.3281 8.82561 21.3803 8.80733 21.4348C8.76367 21.5647 8.76367 21.7109 8.76367 22.0034V24.6354C8.76367 24.9396 8.76367 25.0917 8.81035 25.2256C8.85162 25.3441 8.91894 25.4518 9.00736 25.5407C9.10735 25.6413 9.24411 25.7079 9.51761 25.8411L20.6103 31.2434C20.9999 31.4332 21.1948 31.5281 21.3986 31.5648C21.5791 31.5973 21.764 31.5963 21.9442 31.5619C22.1476 31.5231 22.3414 31.4262 22.7291 31.2324L35.4969 24.8485C35.7122 24.7408 35.8198 24.687 35.8985 24.6067C35.968 24.5357 36.0209 24.4501 36.0533 24.3561C36.09 24.2499 36.09 24.1295 36.09 23.8888V21.1432C36.09 20.6923 36.09 20.434 36.0405 20.2224C35.9936 20.2464 35.9451 20.2711 35.8949 20.2967L23.4457 26.6471C22.7873 26.9829 22.4581 27.1509 22.112 27.2185C21.8054 27.2784 21.4904 27.2807 21.183 27.2252C20.8359 27.1626 20.5043 26.9994 19.8411 26.6731L8.87818 21.2788Z" fill="white"/>
</g>
<g filter="url(#filter5_i_8402_9326)">
<path d="M8.87821 21.2788C8.80477 21.4045 8.76397 21.5493 8.76367 21.7001V24.6354C8.76367 24.9396 8.76367 25.0917 8.81035 25.2257C8.85162 25.3441 8.91894 25.4518 9.00736 25.5407C9.10735 25.6414 9.2441 25.708 9.5176 25.8411L20.7166 31.2952C21.0336 31.4496 21.1921 31.5268 21.3207 31.5068C21.433 31.4894 21.5333 31.4267 21.5982 31.3333C21.6724 31.2264 21.6724 31.0501 21.6724 30.6976V27.7558C21.6724 27.5611 21.6724 27.4011 21.6686 27.2649C21.5062 27.2674 21.3435 27.2542 21.183 27.2252C20.8359 27.1625 20.5043 26.9994 19.8411 26.6731L8.87821 21.2788Z" fill="#F5F5F5"/>
</g>
<path d="M31.8388 15.8556L34.3843 17.1432C34.3464 17.1886 34.292 17.233 34.219 17.2761L31.9216 18.6024C31.8959 18.6172 31.8641 18.6286 31.8293 18.6347C31.7733 18.6443 31.7128 18.6408 31.6598 18.6242C31.6084 18.6085 31.5705 18.5797 31.5554 18.5465L31.065 17.6972L29.5924 17.4133C29.5579 17.4071 29.5243 17.3967 29.4986 17.3818C29.4139 17.3329 29.4154 17.2534 29.5001 17.2044L31.7975 15.8781C31.8112 15.8703 31.8249 15.8627 31.8388 15.8556Z" fill="white"/>
</g>
<rect x="0.229167" y="0.229167" width="43.5417" height="43.5417" rx="12.6042" stroke="#5A6C8A" stroke-opacity="0.34" strokeWidth="0.458333" strokeLinecap="round"/>
</g>
<path d="M54.9998 9.15666C54.9998 8.85454 55.2447 8.60962 55.5468 8.60962H59.2141C59.5162 8.60962 59.7611 8.85454 59.7611 9.15666V30.4909H70.3823C70.6844 30.4909 70.9293 30.7358 70.9293 31.0379V34.145C70.9293 34.4472 70.6844 34.6921 70.3823 34.6921H54.9998V9.15666Z" fill="#424E65"/>
<path d="M72.5737 16.1937C72.5737 15.8916 72.8186 15.6466 73.1207 15.6466H76.613C76.9151 15.6466 77.16 15.8916 77.16 16.1937V34.145C77.16 34.4472 76.9151 34.6921 76.613 34.6921H73.1207C72.8186 34.6921 72.5737 34.4472 72.5737 34.145V16.1937ZM72.2236 10.3951C72.2236 9.5549 72.457 8.90138 72.9238 8.43457C73.3906 7.96777 74.0324 7.73438 74.8493 7.73438C75.6896 7.73438 76.3431 7.96777 76.8099 8.43457C77.2767 8.90138 77.5101 9.5549 77.5101 10.3951C77.5101 11.212 77.2767 11.8539 76.8099 12.3207C76.3664 12.7875 75.7129 13.0209 74.8493 13.0209C74.0324 13.0209 73.3906 12.7875 72.9238 12.3207C72.457 11.8539 72.2236 11.212 72.2236 10.3951Z" fill="#424E65"/>
<path d="M90.7422 35.1122C89.5052 35.1122 88.3499 34.8905 87.2762 34.447C86.2259 34.0035 85.3507 33.3734 84.6505 32.5565V34.145C84.6505 34.4472 84.4056 34.6921 84.1035 34.6921H80.8913C80.5892 34.6921 80.3443 34.4472 80.3443 34.145V8.73654C80.3443 8.43442 80.5892 8.18951 80.8913 8.18951H84.3835C84.6857 8.18951 84.9306 8.43442 84.9306 8.73654V17.5722C85.6074 16.8253 86.4477 16.2535 87.4513 15.8567C88.4549 15.4366 89.5636 15.2265 90.7772 15.2265C92.5511 15.2265 94.1732 15.67 95.6436 16.5569C97.1141 17.4205 98.2694 18.6108 99.1096 20.1279C99.9499 21.645 100.37 23.3255 100.37 25.1694C100.37 27.0132 99.9499 28.6937 99.1096 30.2108C98.2694 31.7279 97.1141 32.9299 95.6436 33.8168C94.1966 34.6804 92.5628 35.1122 90.7422 35.1122ZM84.9306 25.1694C84.9306 26.2663 85.1523 27.2583 85.5958 28.1452C86.0626 29.0088 86.6927 29.6856 87.4863 30.1758C88.3032 30.6659 89.2135 30.911 90.2171 30.911C91.7809 30.911 93.0646 30.3742 94.0682 29.3005C95.0951 28.2036 95.6086 26.8265 95.6086 25.1694C95.6086 24.0957 95.3752 23.1271 94.9084 22.2635C94.4416 21.3766 93.7998 20.6881 92.9829 20.1979C92.166 19.6845 91.244 19.4277 90.2171 19.4277C89.2135 19.4277 88.3032 19.6728 87.4863 20.1629C86.6927 20.6531 86.0626 21.3416 85.5958 22.2285C85.1523 23.0921 84.9306 24.0724 84.9306 25.1694Z" fill="#424E65"/>
<path d="M102.816 16.1937C102.816 15.8916 103.061 15.6466 103.363 15.6466H106.576C106.878 15.6466 107.123 15.8916 107.123 16.1937V18.3074C107.589 17.2804 108.255 16.5452 109.118 16.1018C109.982 15.6583 111.032 15.4366 112.269 15.4366H112.842C113.144 15.4366 113.389 15.6815 113.389 15.9836V18.9507C113.389 19.2528 113.144 19.4977 112.842 19.4977H111.744C110.437 19.4977 109.387 19.9062 108.593 20.7231C107.799 21.54 107.403 22.6603 107.403 24.084V34.145C107.403 34.4472 107.158 34.6921 106.856 34.6921H103.363C103.061 34.6921 102.816 34.4472 102.816 34.145V16.1937Z" fill="#424E65"/>
<path d="M120.637 35.1122C118.63 35.1122 117.031 34.6221 115.841 33.6418C114.674 32.6615 114.09 31.3311 114.09 29.6506C114.09 28.0402 114.639 26.7098 115.736 25.6595C116.833 24.6092 118.478 23.909 120.672 23.5589L126.344 22.6486V22.0185C126.344 21.1782 126.017 20.4897 125.364 19.9529C124.733 19.416 123.893 19.1476 122.843 19.1476C121.863 19.1476 120.987 19.416 120.217 19.9529C119.629 20.3569 119.165 20.8694 118.822 21.4902C118.67 21.7675 118.33 21.9011 118.045 21.7627L115.274 20.4156C115.02 20.2923 114.899 19.9947 115.017 19.7381C115.606 18.4556 116.569 17.4068 117.906 16.5919C119.4 15.6816 121.104 15.2265 123.018 15.2265C124.558 15.2265 125.924 15.5183 127.114 16.1018C128.328 16.6619 129.261 17.4672 129.915 18.5175C130.592 19.5444 130.93 20.7114 130.93 22.0185V34.145C130.93 34.4472 130.685 34.6921 130.383 34.6921H127.136C126.834 34.6921 126.589 34.4472 126.589 34.145V32.6615C125.095 34.2953 123.111 35.1122 120.637 35.1122ZM118.852 29.4756C118.852 30.1291 119.097 30.6543 119.587 31.051C120.077 31.4245 120.707 31.6112 121.477 31.6112C122.901 31.6112 124.068 31.1677 124.978 30.2808C125.889 29.3706 126.344 28.2502 126.344 26.9199V26.1496L121.547 26.9549C120.637 27.1416 119.96 27.445 119.517 27.8651C119.073 28.2619 118.852 28.7987 118.852 29.4756Z" fill="#424E65"/>
<path d="M134.119 16.1937C134.119 15.8916 134.364 15.6466 134.666 15.6466H137.878C138.18 15.6466 138.425 15.8916 138.425 16.1937V18.3074C138.892 17.2804 139.557 16.5452 140.421 16.1018C141.284 15.6583 142.334 15.4366 143.572 15.4366H144.145C144.447 15.4366 144.692 15.6815 144.692 15.9836V18.9507C144.692 19.2528 144.447 19.4977 144.145 19.4977H143.046C141.739 19.4977 140.689 19.9062 139.895 20.7231C139.102 21.54 138.705 22.6603 138.705 24.084V34.145C138.705 34.4472 138.46 34.6921 138.158 34.6921H134.666C134.364 34.6921 134.119 34.4472 134.119 34.145V16.1937Z" fill="#424E65"/>
<path d="M153.307 34.2019L146.181 16.1848C146.039 15.8258 146.303 15.4366 146.689 15.4366H150.442C150.67 15.4366 150.874 15.5778 150.954 15.7911L155.757 28.5653L160.526 15.7923C160.606 15.5784 160.81 15.4366 161.039 15.4366H164.826C165.212 15.4366 165.477 15.8256 165.335 16.1846L155.474 41.138C155.392 41.3468 155.19 41.484 154.965 41.484H151.208C150.821 41.484 150.557 41.0935 150.7 40.7342L153.307 34.2019Z" fill="#424E65"/>
<defs>
<filter id="filter0_ii_8402_9326" x="0" y="0" width="44" height="49" filterUnits="userSpaceOnUse" color-interpolation-filters="sRGB">
<feFlood flood-opacity="0" result="BackgroundImageFix"/>
<feBlend mode="normal" in="SourceGraphic" in2="BackgroundImageFix" result="shape"/>
<feColorMatrix in="SourceAlpha" type="matrix" values="0 0 0 0 0 0 0 0 0 0 0 0 0 0 0 0 0 0 127 0" result="hardAlpha"/>
<feOffset dy="1"/>
<feComposite in2="hardAlpha" operator="arithmetic" k2="-1" k3="1"/>
<feColorMatrix type="matrix" values="0 0 0 0 1 0 0 0 0 1 0 0 0 0 1 0 0 0 0.27 0"/>
<feBlend mode="normal" in2="shape" result="effect1_innerShadow_8402_9326"/>
<feColorMatrix in="SourceAlpha" type="matrix" values="0 0 0 0 0 0 0 0 0 0 0 0 0 0 0 0 0 0 127 0" result="hardAlpha"/>
<feOffset dy="5"/>
<feGaussianBlur stdDeviation="6"/>
<feComposite in2="hardAlpha" operator="arithmetic" k2="-1" k3="1"/>
<feColorMatrix type="matrix" values="0 0 0 0 1 0 0 0 0 1 0 0 0 0 1 0 0 0 0.25 0"/>
<feBlend mode="normal" in2="effect1_innerShadow_8402_9326" result="effect2_innerShadow_8402_9326"/>
</filter>
<filter id="filter1_dii_8402_9326" x="4.42334" y="9.8559" width="35.6425" height="27.0763" filterUnits="userSpaceOnUse" color-interpolation-filters="sRGB">
<feFlood flood-opacity="0" result="BackgroundImageFix"/>
<feColorMatrix in="SourceAlpha" type="matrix" values="0 0 0 0 0 0 0 0 0 0 0 0 0 0 0 0 0 0 127 0" result="hardAlpha"/>
<feOffset dy="0.943848"/>
<feGaussianBlur stdDeviation="1.41577"/>
<feComposite in2="hardAlpha" operator="out"/>
<feColorMatrix type="matrix" values="0 0 0 0 0 0 0 0 0 0 0 0 0 0 0 0 0 0 0.16 0"/>
<feBlend mode="normal" in2="BackgroundImageFix" result="effect1_dropShadow_8402_9326"/>
<feBlend mode="normal" in="SourceGraphic" in2="effect1_dropShadow_8402_9326" result="shape"/>
<feColorMatrix in="SourceAlpha" type="matrix" values="0 0 0 0 0 0 0 0 0 0 0 0 0 0 0 0 0 0 127 0" result="hardAlpha"/>
<feOffset dy="-1.8877"/>
<feGaussianBlur stdDeviation="1.8877"/>
<feComposite in2="hardAlpha" operator="arithmetic" k2="-1" k3="1"/>
<feColorMatrix type="matrix" values="0 0 0 0 1 0 0 0 0 1 0 0 0 0 1 0 0 0 0.25 0"/>
<feBlend mode="normal" in2="shape" result="effect2_innerShadow_8402_9326"/>
<feColorMatrix in="SourceAlpha" type="matrix" values="0 0 0 0 0 0 0 0 0 0 0 0 0 0 0 0 0 0 127 0" result="hardAlpha"/>
<feOffset dy="0.943848"/>
<feGaussianBlur stdDeviation="3.77539"/>
<feComposite in2="hardAlpha" operator="arithmetic" k2="-1" k3="1"/>
<feColorMatrix type="matrix" values="0 0 0 0 1 0 0 0 0 1 0 0 0 0 1 0 0 0 0.14 0"/>
<feBlend mode="normal" in2="effect2_innerShadow_8402_9326" result="effect3_innerShadow_8402_9326"/>
</filter>
<filter id="filter2_i_8402_9326" x="7.43787" y="8.91205" width="29.7963" height="18.3531" filterUnits="userSpaceOnUse" color-interpolation-filters="sRGB">
<feFlood flood-opacity="0" result="BackgroundImageFix"/>
<feBlend mode="normal" in="SourceGraphic" in2="BackgroundImageFix" result="shape"/>
<feColorMatrix in="SourceAlpha" type="matrix" values="0 0 0 0 0 0 0 0 0 0 0 0 0 0 0 0 0 0 127 0" result="hardAlpha"/>
<feOffset dy="-2.83154"/>
<feGaussianBlur stdDeviation="1.8877"/>
<feComposite in2="hardAlpha" operator="arithmetic" k2="-1" k3="1"/>
<feColorMatrix type="matrix" values="0 0 0 0 0.352941 0 0 0 0 0.423529 0 0 0 0 0.541176 0 0 0 0.33 0"/>
<feBlend mode="normal" in2="shape" result="effect1_innerShadow_8402_9326"/>
</filter>
<filter id="filter3_i_8402_9326" x="7.25488" y="8.74365" width="29.9794" height="24.4131" filterUnits="userSpaceOnUse" color-interpolation-filters="sRGB">
<feFlood flood-opacity="0" result="BackgroundImageFix"/>
<feBlend mode="normal" in="SourceGraphic" in2="BackgroundImageFix" result="shape"/>
<feColorMatrix in="SourceAlpha" type="matrix" values="0 0 0 0 0 0 0 0 0 0 0 0 0 0 0 0 0 0 127 0" result="hardAlpha"/>
<feOffset dy="-3"/>
<feGaussianBlur stdDeviation="2"/>
<feComposite in2="hardAlpha" operator="arithmetic" k2="-1" k3="1"/>
<feColorMatrix type="matrix" values="0 0 0 0 0.352941 0 0 0 0 0.423529 0 0 0 0 0.541176 0 0 0 0.33 0"/>
<feBlend mode="normal" in2="shape" result="effect1_innerShadow_8402_9326"/>
</filter>
<filter id="filter4_i_8402_9326" x="8.76367" y="19.2224" width="27.3263" height="12.366" filterUnits="userSpaceOnUse" color-interpolation-filters="sRGB">
<feFlood flood-opacity="0" result="BackgroundImageFix"/>
<feBlend mode="normal" in="SourceGraphic" in2="BackgroundImageFix" result="shape"/>
<feColorMatrix in="SourceAlpha" type="matrix" values="0 0 0 0 0 0 0 0 0 0 0 0 0 0 0 0 0 0 127 0" result="hardAlpha"/>
<feOffset dy="-1"/>
<feGaussianBlur stdDeviation="2"/>
<feComposite in2="hardAlpha" operator="arithmetic" k2="-1" k3="1"/>
<feColorMatrix type="matrix" values="0 0 0 0 0.352941 0 0 0 0 0.423529 0 0 0 0 0.541176 0 0 0 0.33 0"/>
<feBlend mode="normal" in2="shape" result="effect1_innerShadow_8402_9326"/>
</filter>
<filter id="filter5_i_8402_9326" x="8.76367" y="20.2788" width="12.9087" height="11.2311" filterUnits="userSpaceOnUse" color-interpolation-filters="sRGB">
<feFlood flood-opacity="0" result="BackgroundImageFix"/>
<feBlend mode="normal" in="SourceGraphic" in2="BackgroundImageFix" result="shape"/>
<feColorMatrix in="SourceAlpha" type="matrix" values="0 0 0 0 0 0 0 0 0 0 0 0 0 0 0 0 0 0 127 0" result="hardAlpha"/>
<feOffset dy="-1"/>
<feGaussianBlur stdDeviation="2"/>
<feComposite in2="hardAlpha" operator="arithmetic" k2="-1" k3="1"/>
<feColorMatrix type="matrix" values="0 0 0 0 0.352941 0 0 0 0 0.423529 0 0 0 0 0.541176 0 0 0 0.33 0"/>
<feBlend mode="normal" in2="shape" result="effect1_innerShadow_8402_9326"/>
</filter>
<linearGradient id="paint0_linear_8402_9326" x1="41.1482" y1="5.98335" x2="8.23406" y2="55.3568" gradientUnits="userSpaceOnUse">
<stop offset="0.262852" stop-color="#5A6C8A"/>
<stop offset="1" stop-color="#47566F"/>
</linearGradient>
</defs>
</svg>
