<svg width="14" height="14" viewBox="0 0 14 14" fill="none" xmlns="http://www.w3.org/2000/svg">
<rect width="14" height="14" rx="7" fill="#18BED4"/>
<path d="M5.10454 5.78601L3.12891 6.52731C2.89266 6.60168 2.80078 6.7898 2.80078 6.9998C2.80078 7.2098 2.89266 7.39793 3.12891 7.4723L5.10453 8.2136C5.41986 8.33192 5.66867 8.58073 5.78698 8.89605L6.52828 10.8717C6.60266 11.0686 6.79078 11.1998 7.00078 11.1998C7.21078 11.1998 7.39891 11.0686 7.47328 10.8717L8.21458 8.89605C8.33289 8.58073 8.58171 8.33192 8.89703 8.2136L10.8727 7.4723C11.0695 7.39793 11.2008 7.2098 11.2008 6.9998C11.2008 6.7898 11.0695 6.60168 10.8727 6.52731L8.89703 5.78601C8.5817 5.66769 8.33289 5.41888 8.21458 5.10356L7.47328 3.12793C7.39891 2.89168 7.21078 2.7998 7.00078 2.7998C6.79078 2.7998 6.60266 2.89168 6.52828 3.12793L5.78698 5.10356C5.66867 5.41888 5.41986 5.66769 5.10454 5.78601Z" fill="white"/>
</svg>
